<?xml version="1.0" encoding="utf-8"?>
<!-- Generator: Adobe Illustrator 16.0.3, SVG Export Plug-In . SVG Version: 6.00 Build 0)  -->
<!DOCTYPE svg PUBLIC "-//W3C//DTD SVG 1.1//EN" "http://www.w3.org/Graphics/SVG/1.1/DTD/svg11.dtd">
<svg version="1.1" id="Vrstva_1" xmlns="http://www.w3.org/2000/svg" xmlns:xlink="http://www.w3.org/1999/xlink" x="0px" y="0px"
	 width="341.333px" height="95.333px" viewBox="0 0 341.333 95.333" enable-background="new 0 0 341.333 95.333"
	 xml:space="preserve">
<path fill="#E97818" d="M287.823,15.96h23.739c10.341,0,15.509,6.19,15.509,18.569c0,4.327-0.576,8.021-1.729,11.083
	c-1.313,3.528-3.381,6.323-6.204,8.386c0.715,3.861,1.67,8.619,2.862,14.278c1.035,4.792,2.068,9.584,3.102,14.376h-16.344
	c-1.709-12.515-2.803-20.367-3.279-23.561c-0.477-3.197-1.254-7.955-2.327-14.278c0.358,0.133,0.815,0.232,1.372,0.299
	c0.557,0.066,0.994,0.1,1.313,0.1c1.948,0,3.488-0.6,4.623-1.798c1.133-1.197,1.7-2.929,1.7-5.191c0-1.864-0.408-3.211-1.224-4.043
	c-0.814-0.831-2.595-1.248-5.338-1.248h-3.58c0,5.524-0.09,11.048-0.268,16.573c-0.18,5.525-0.358,11.397-0.537,17.623
	c-0.179,6.223-0.269,11.396-0.269,15.524h-15.21c0.716-9.918,1.242-20.7,1.58-32.349C287.653,38.657,287.823,27.21,287.823,15.96
	 M245.172,15.96h35.253l-0.536,17.971c-1.273,0-3.41-0.066-6.412-0.2c-3.002-0.133-4.604-0.199-4.802-0.199h-8.292l-0.297,6.988
	h6.143c1.193,0,3.112-0.066,5.756-0.2c2.645-0.132,4.027-0.199,4.146-0.199l-0.598,17.971H259.37l-0.357,7.188
	c0.557,0,1.104,0,1.641,0c0.536,0,1.162,0,1.878,0c1.79,0,3.858-0.099,6.204-0.301c5.527-0.466,8.927-0.698,10.199-0.698
	l-0.716,18.371h-35.372C244.397,61.021,245.172,38.791,245.172,15.96z M195.604,82.653c0.677-10.648,1.163-21.432,1.461-32.349
	c0.299-10.915,0.449-22.364,0.449-34.344h24.098c5.288,0,9.424,2.729,12.406,8.188c2.983,5.457,4.475,13.078,4.475,22.862
	c0,10.251-1.571,18.538-4.712,24.86c-3.54,7.188-8.61,10.782-15.212,10.782H195.604z M210.995,64.88l2.445,0.199
	c3.459,0,5.945-1.695,7.455-5.091c1.313-2.928,1.969-7.188,1.969-12.778c0-4.927-0.695-8.438-2.086-10.535
	c-1.393-2.096-3.361-3.144-5.906-3.144c-0.478,0-0.945,0.016-1.402,0.049c-0.457,0.034-0.964,0.15-1.521,0.35L210.995,64.88z
	 M159.934,15.96h15.986c-0.278,5.458-0.556,11.083-0.835,16.873c-0.278,5.791-0.496,11.182-0.656,16.174
	c-0.158,4.992-0.237,10.351-0.237,16.073h6.144c1.313,0,3.52-0.065,6.621-0.199c3.102-0.132,4.752-0.198,4.951-0.198l-0.717,17.971
	h-33.761c0.795-11.316,1.412-22.53,1.85-33.646C159.715,37.892,159.934,26.876,159.934,15.96z M121.819,15.96h15.985
	c-0.278,5.458-0.557,11.083-0.835,16.873c-0.278,5.791-0.497,11.182-0.656,16.174c-0.159,4.992-0.238,10.351-0.238,16.073h6.144
	c1.312,0,3.519-0.065,6.621-0.199c3.102-0.132,4.752-0.198,4.951-0.198l-0.715,17.971h-33.762
	c0.796-11.316,1.411-22.53,1.849-33.646C121.6,37.892,121.819,26.876,121.819,15.96z M78.751,15.96h35.253l-0.537,17.971
	c-1.272,0-3.409-0.066-6.412-0.2c-3.002-0.133-4.604-0.199-4.802-0.199h-8.291l-0.298,6.988h6.143c1.194,0,3.112-0.066,5.756-0.2
	c2.645-0.132,4.026-0.199,4.146-0.199l-0.597,17.971H92.948l-0.357,7.188c0.556,0,1.103,0,1.639,0c0.539,0,1.165,0,1.88,0
	c1.789,0,3.857-0.099,6.203-0.301c5.527-0.466,8.928-0.698,10.2-0.698l-0.716,18.371H76.425
	C77.976,61.021,78.751,38.791,78.751,15.96z M14.152,15.96h13.063c0.279,4.127,0.656,9.219,1.133,15.275
	c1.233,15.308,1.91,23.862,2.029,25.66c0.517-4.594,1.212-9.719,2.087-15.376c2.308-15.042,3.579-23.562,3.818-25.559h15.509
	c1.312,13.645,2.625,27.289,3.937,40.935c0.755-5.858,1.729-12.713,2.923-20.568c1.671-10.981,2.684-17.771,3.042-20.367h12.826
	c-1.95,10.45-3.32,17.838-4.116,22.164c-1.313,7.123-2.595,14.426-3.847,21.915c-1.254,7.488-2.456,15.025-3.61,22.614H46.063
	c-0.636-6.123-1.094-10.717-1.372-13.777c-0.995-9.783-1.69-17.539-2.088-23.263c-0.755,6.124-1.868,13.877-3.34,23.263
	c-1.312,8.319-2.028,12.912-2.147,13.777H21.011c-0.556-6.791-1.233-14.178-2.027-22.164c-0.955-9.718-1.71-17.106-2.268-22.165
	C15.841,30.87,14.987,23.415,14.152,15.96z"/>
<path fill="#E97818" d="M287.823,15.293h23.739c10.341,0,15.509,6.19,15.509,18.569c0,4.327-0.576,8.021-1.729,11.083
	c-1.313,3.528-3.381,6.323-6.204,8.386c0.715,3.861,1.67,8.619,2.862,14.278c1.035,4.792,2.068,9.584,3.102,14.376h-16.344
	c-1.709-12.515-2.803-20.367-3.279-23.561c-0.477-3.197-1.254-7.955-2.327-14.278c0.358,0.133,0.815,0.232,1.372,0.299
	c0.557,0.066,0.994,0.1,1.313,0.1c1.948,0,3.488-0.6,4.623-1.798c1.133-1.197,1.7-2.929,1.7-5.191c0-1.864-0.408-3.211-1.224-4.043
	c-0.814-0.831-2.595-1.248-5.338-1.248h-3.58c0,5.524-0.09,11.048-0.268,16.573c-0.18,5.525-0.358,11.397-0.537,17.623
	c-0.179,6.223-0.269,11.396-0.269,15.524h-15.21c0.716-9.918,1.242-20.7,1.58-32.349C287.653,37.99,287.823,26.543,287.823,15.293
	 M245.172,15.293h35.253l-0.536,17.971c-1.273,0-3.41-0.066-6.412-0.2c-3.002-0.133-4.604-0.199-4.802-0.199h-8.292l-0.297,6.988
	h6.143c1.193,0,3.112-0.066,5.756-0.2c2.645-0.132,4.027-0.199,4.146-0.199l-0.598,17.971H259.37l-0.357,7.188
	c0.557,0,1.104,0,1.641,0c0.536,0,1.162,0,1.878,0c1.79,0,3.858-0.099,6.204-0.301c5.527-0.466,8.927-0.698,10.199-0.698
	l-0.716,18.371h-35.372C244.397,60.354,245.172,38.124,245.172,15.293z M195.604,81.986c0.677-10.648,1.163-21.432,1.461-32.349
	c0.299-10.915,0.449-22.364,0.449-34.344h24.098c5.288,0,9.424,2.729,12.406,8.188c2.983,5.457,4.475,13.078,4.475,22.862
	c0,10.251-1.571,18.538-4.712,24.86c-3.54,7.188-8.61,10.782-15.212,10.782H195.604z M210.995,64.213l2.445,0.199
	c3.459,0,5.945-1.695,7.455-5.091c1.313-2.928,1.969-7.188,1.969-12.778c0-4.927-0.695-8.438-2.086-10.535
	c-1.393-2.096-3.361-3.144-5.906-3.144c-0.478,0-0.945,0.016-1.402,0.049c-0.457,0.034-0.964,0.15-1.521,0.35L210.995,64.213z
	 M159.934,15.293h15.986c-0.278,5.458-0.556,11.083-0.835,16.873c-0.278,5.791-0.496,11.182-0.656,16.174
	c-0.158,4.992-0.237,10.351-0.237,16.073h6.144c1.313,0,3.52-0.065,6.621-0.199c3.102-0.132,4.752-0.198,4.951-0.198l-0.717,17.971
	h-33.761c0.795-11.316,1.412-22.53,1.85-33.646C159.715,37.225,159.934,26.209,159.934,15.293z M121.819,15.293h15.985
	c-0.278,5.458-0.557,11.083-0.835,16.873c-0.278,5.791-0.497,11.182-0.656,16.174c-0.159,4.992-0.238,10.351-0.238,16.073h6.144
	c1.312,0,3.519-0.065,6.621-0.199c3.102-0.132,4.752-0.198,4.951-0.198l-0.715,17.971h-33.762
	c0.796-11.316,1.411-22.53,1.849-33.646C121.6,37.225,121.819,26.209,121.819,15.293z M78.751,15.293h35.253l-0.537,17.971
	c-1.272,0-3.409-0.066-6.412-0.2c-3.002-0.133-4.604-0.199-4.802-0.199h-8.291l-0.298,6.988h6.143c1.194,0,3.112-0.066,5.756-0.2
	c2.645-0.132,4.026-0.199,4.146-0.199l-0.597,17.971H92.948l-0.357,7.188c0.556,0,1.103,0,1.639,0c0.539,0,1.165,0,1.88,0
	c1.789,0,3.857-0.099,6.203-0.301c5.527-0.466,8.928-0.698,10.2-0.698l-0.716,18.371H76.425
	C77.976,60.354,78.751,38.124,78.751,15.293z M14.152,15.293h13.063c0.279,4.127,0.656,9.219,1.133,15.275
	c1.233,15.308,1.91,23.862,2.029,25.66c0.517-4.594,1.212-9.719,2.087-15.376c2.308-15.042,3.579-23.562,3.818-25.559h15.509
	c1.312,13.645,2.625,27.289,3.937,40.935c0.755-5.858,1.729-12.713,2.923-20.568c1.671-10.981,2.684-17.771,3.042-20.367h12.826
	c-1.95,10.45-3.32,17.838-4.116,22.164c-1.313,7.123-2.595,14.426-3.847,21.915c-1.254,7.488-2.456,15.025-3.61,22.614H46.063
	c-0.636-6.123-1.094-10.717-1.372-13.777c-0.995-9.783-1.69-17.539-2.088-23.263c-0.755,6.124-1.868,13.877-3.34,23.263
	c-1.312,8.319-2.028,12.912-2.147,13.777H21.011c-0.556-6.791-1.233-14.178-2.027-22.164c-0.955-9.718-1.71-17.106-2.268-22.165
	C15.841,30.203,14.987,22.748,14.152,15.293z"/>
<g>
</g>
<g>
</g>
<g>
</g>
<g>
</g>
<g>
</g>
<g>
</g>
</svg>
